<mxfile host="app.diagrams.net" modified="2022-08-20T07:02:49.720Z" agent="5.0 (Windows NT 10.0; Win64; x64) AppleWebKit/537.36 (KHTML, like Gecko) Chrome/104.0.0.0 Safari/537.36" etag="NGEpYVLyX9TI6SQtWd-0" version="20.2.5" type="github">
  <diagram id="aObQEWRC_5clkf6LmqtT" name="Page-1">
    <mxGraphModel dx="1038" dy="579" grid="1" gridSize="10" guides="1" tooltips="1" connect="1" arrows="1" fold="1" page="1" pageScale="1" pageWidth="850" pageHeight="1100" math="0" shadow="0">
      <root>
        <mxCell id="0" />
        <mxCell id="1" parent="0" />
        <mxCell id="BaOxIRFJ-_uR9Gt454bv-20" value="" style="strokeWidth=1;shadow=0;dashed=0;align=center;html=1;shape=mxgraph.mockup.containers.browserWindow;rSize=0;strokeColor=#6c8ebf;strokeColor2=#008cff;strokeColor3=#c4c4c4;mainText=,;recursiveResize=0;fillColor=#dae8fc;" parent="1" vertex="1">
          <mxGeometry x="30" y="50" width="600" height="430" as="geometry" />
        </mxCell>
        <mxCell id="BaOxIRFJ-_uR9Gt454bv-21" value="Home" style="strokeWidth=1;shadow=0;dashed=0;align=center;html=1;shape=mxgraph.mockup.containers.anchor;fontSize=17;fontColor=#666666;align=left;" parent="BaOxIRFJ-_uR9Gt454bv-20" vertex="1">
          <mxGeometry x="60" y="12" width="110" height="26" as="geometry" />
        </mxCell>
        <mxCell id="BaOxIRFJ-_uR9Gt454bv-22" value="https://www.canteenonline.io" style="strokeWidth=1;shadow=0;dashed=0;align=center;html=1;shape=mxgraph.mockup.containers.anchor;rSize=0;fontSize=17;fontColor=#666666;align=left;" parent="BaOxIRFJ-_uR9Gt454bv-20" vertex="1">
          <mxGeometry x="130" y="60" width="250" height="26" as="geometry" />
        </mxCell>
        <mxCell id="BaOxIRFJ-_uR9Gt454bv-1" value="" style="strokeWidth=1;shadow=0;dashed=0;align=center;html=1;shape=mxgraph.mockup.forms.rrect;rSize=0;strokeColor=#36393d;fillColor=#f9f7ed;" parent="BaOxIRFJ-_uR9Gt454bv-20" vertex="1">
          <mxGeometry x="374" y="110" width="210" height="300" as="geometry" />
        </mxCell>
        <mxCell id="BaOxIRFJ-_uR9Gt454bv-2" value="Sign In" style="strokeWidth=1;shadow=0;dashed=0;align=center;html=1;shape=mxgraph.mockup.forms.anchor;fontSize=12;fontColor=#666666;align=left;resizeWidth=1;spacingLeft=0;" parent="BaOxIRFJ-_uR9Gt454bv-1" vertex="1">
          <mxGeometry width="105" height="20" relative="1" as="geometry">
            <mxPoint x="10" y="10" as="offset" />
          </mxGeometry>
        </mxCell>
        <mxCell id="BaOxIRFJ-_uR9Gt454bv-3" value="" style="shape=line;strokeColor=#ddeeff;strokeWidth=2;html=1;resizeWidth=1;" parent="BaOxIRFJ-_uR9Gt454bv-1" vertex="1">
          <mxGeometry width="189" height="10" relative="1" as="geometry">
            <mxPoint x="10" y="30" as="offset" />
          </mxGeometry>
        </mxCell>
        <mxCell id="BaOxIRFJ-_uR9Gt454bv-4" value="User Name:" style="strokeWidth=1;shadow=0;dashed=0;align=center;html=1;shape=mxgraph.mockup.forms.anchor;fontSize=12;fontColor=#666666;align=left;resizeWidth=1;spacingLeft=0;" parent="BaOxIRFJ-_uR9Gt454bv-1" vertex="1">
          <mxGeometry width="105" height="20" relative="1" as="geometry">
            <mxPoint x="10" y="40" as="offset" />
          </mxGeometry>
        </mxCell>
        <mxCell id="BaOxIRFJ-_uR9Gt454bv-5" value="johndoe" style="strokeWidth=1;shadow=0;dashed=0;align=center;html=1;shape=mxgraph.mockup.forms.rrect;rSize=0;strokeColor=#999999;fontColor=#666666;align=left;spacingLeft=5;resizeWidth=1;" parent="BaOxIRFJ-_uR9Gt454bv-1" vertex="1">
          <mxGeometry width="157.5" height="25" relative="1" as="geometry">
            <mxPoint x="10" y="60" as="offset" />
          </mxGeometry>
        </mxCell>
        <mxCell id="BaOxIRFJ-_uR9Gt454bv-6" value="Password:" style="strokeWidth=1;shadow=0;dashed=0;align=center;html=1;shape=mxgraph.mockup.forms.anchor;fontSize=12;fontColor=#666666;align=left;resizeWidth=1;spacingLeft=0;" parent="BaOxIRFJ-_uR9Gt454bv-1" vertex="1">
          <mxGeometry width="105" height="20" relative="1" as="geometry">
            <mxPoint x="10" y="95" as="offset" />
          </mxGeometry>
        </mxCell>
        <mxCell id="BaOxIRFJ-_uR9Gt454bv-7" value="********" style="strokeWidth=1;shadow=0;dashed=0;align=center;html=1;shape=mxgraph.mockup.forms.rrect;rSize=0;strokeColor=#999999;fontColor=#666666;align=left;spacingLeft=5;resizeWidth=1;" parent="BaOxIRFJ-_uR9Gt454bv-1" vertex="1">
          <mxGeometry width="157.5" height="25" relative="1" as="geometry">
            <mxPoint x="10" y="115" as="offset" />
          </mxGeometry>
        </mxCell>
        <mxCell id="BaOxIRFJ-_uR9Gt454bv-8" value="SIGN IN" style="strokeWidth=1;shadow=0;dashed=0;align=center;html=1;shape=mxgraph.mockup.forms.rrect;rSize=5;strokeColor=none;fontColor=#ffffff;fillColor=#66bbff;fontSize=16;fontStyle=1;" parent="BaOxIRFJ-_uR9Gt454bv-1" vertex="1">
          <mxGeometry y="1" width="80" height="30" relative="1" as="geometry">
            <mxPoint x="20" y="-150" as="offset" />
          </mxGeometry>
        </mxCell>
        <mxCell id="BaOxIRFJ-_uR9Gt454bv-9" value="Forgot Password?" style="strokeWidth=1;shadow=0;dashed=0;align=center;html=1;shape=mxgraph.mockup.forms.anchor;fontSize=12;fontColor=#9999ff;align=left;spacingLeft=0;fontStyle=4;resizeWidth=1;" parent="BaOxIRFJ-_uR9Gt454bv-1" vertex="1">
          <mxGeometry y="1" width="157.5" height="20" relative="1" as="geometry">
            <mxPoint x="10" y="-110" as="offset" />
          </mxGeometry>
        </mxCell>
        <mxCell id="BaOxIRFJ-_uR9Gt454bv-10" value="" style="shape=line;strokeColor=#ddeeff;strokeWidth=2;html=1;resizeWidth=1;" parent="BaOxIRFJ-_uR9Gt454bv-1" vertex="1">
          <mxGeometry y="1" width="189" height="10" relative="1" as="geometry">
            <mxPoint x="10" y="-90" as="offset" />
          </mxGeometry>
        </mxCell>
        <mxCell id="BaOxIRFJ-_uR9Gt454bv-11" value="New Employee" style="strokeWidth=1;shadow=0;dashed=0;align=center;html=1;shape=mxgraph.mockup.forms.anchor;fontSize=12;fontColor=#666666;align=left;spacingLeft=0;resizeWidth=1;" parent="BaOxIRFJ-_uR9Gt454bv-1" vertex="1">
          <mxGeometry y="1" width="157.5" height="20" relative="1" as="geometry">
            <mxPoint x="10" y="-70" as="offset" />
          </mxGeometry>
        </mxCell>
        <mxCell id="BaOxIRFJ-_uR9Gt454bv-12" value="SIGN UP" style="strokeWidth=1;shadow=0;dashed=0;align=center;html=1;shape=mxgraph.mockup.forms.rrect;rSize=5;strokeColor=none;fontColor=#ffffff;fillColor=#66bbff;fontSize=16;fontStyle=1;" parent="BaOxIRFJ-_uR9Gt454bv-1" vertex="1">
          <mxGeometry y="1" width="80" height="30" relative="1" as="geometry">
            <mxPoint x="20" y="-50" as="offset" />
          </mxGeometry>
        </mxCell>
        <mxCell id="jjGvyvvV1T1RSbV-EjfU-15" value="Home" style="strokeWidth=1;shadow=0;dashed=0;align=center;html=1;shape=mxgraph.mockup.navigation.anchor;fontSize=12;fontColor=#666666;fontStyle=1;" vertex="1" parent="BaOxIRFJ-_uR9Gt454bv-20">
          <mxGeometry x="10" y="120" width="60" height="30" as="geometry" />
        </mxCell>
        <mxCell id="jjGvyvvV1T1RSbV-EjfU-16" value="|" style="strokeWidth=1;shadow=0;dashed=0;align=center;html=1;shape=mxgraph.mockup.navigation.anchor;fontSize=12;fontColor=#aaaaaa;fontStyle=1;" vertex="1" parent="BaOxIRFJ-_uR9Gt454bv-20">
          <mxGeometry x="71" y="120" width="20" height="30" as="geometry" />
        </mxCell>
        <mxCell id="jjGvyvvV1T1RSbV-EjfU-17" value="Menu" style="strokeWidth=1;shadow=0;dashed=0;align=center;html=1;shape=mxgraph.mockup.navigation.anchor;fontSize=12;fontColor=#666666;fontStyle=1;" vertex="1" parent="BaOxIRFJ-_uR9Gt454bv-20">
          <mxGeometry x="59" y="120" width="60" height="30" as="geometry" />
        </mxCell>
        <mxCell id="jjGvyvvV1T1RSbV-EjfU-18" value="|" style="strokeWidth=1;shadow=0;dashed=0;align=center;html=1;shape=mxgraph.mockup.navigation.anchor;fontSize=12;fontColor=#aaaaaa;fontStyle=1;" vertex="1" parent="BaOxIRFJ-_uR9Gt454bv-20">
          <mxGeometry x="105" y="120" width="20" height="30" as="geometry" />
        </mxCell>
        <mxCell id="jjGvyvvV1T1RSbV-EjfU-19" value="My Canteen" style="strokeWidth=1;shadow=0;dashed=0;align=center;html=1;shape=mxgraph.mockup.navigation.anchor;fontSize=12;fontColor=#666666;fontStyle=1;" vertex="1" parent="BaOxIRFJ-_uR9Gt454bv-20">
          <mxGeometry x="128" y="120" width="60" height="30" as="geometry" />
        </mxCell>
        <mxCell id="jjGvyvvV1T1RSbV-EjfU-20" value="|" style="strokeWidth=1;shadow=0;dashed=0;align=center;html=1;shape=mxgraph.mockup.navigation.anchor;fontSize=12;fontColor=#aaaaaa;fontStyle=1;" vertex="1" parent="BaOxIRFJ-_uR9Gt454bv-20">
          <mxGeometry x="190" y="120" width="20" height="30" as="geometry" />
        </mxCell>
        <mxCell id="jjGvyvvV1T1RSbV-EjfU-21" value="&lt;font style=&quot;font-size: 12px;&quot;&gt;Feedback&lt;/font&gt;" style="strokeWidth=1;shadow=0;dashed=0;align=center;html=1;shape=mxgraph.mockup.navigation.anchor;fontSize=17;fontColor=#666666;fontStyle=1;" vertex="1" parent="BaOxIRFJ-_uR9Gt454bv-20">
          <mxGeometry x="205" y="120" width="60" height="30" as="geometry" />
        </mxCell>
        <mxCell id="jjGvyvvV1T1RSbV-EjfU-34" value="Photo" style="html=1;strokeColor=none;fillColor=#0079D6;labelPosition=center;verticalLabelPosition=middle;verticalAlign=top;align=center;fontSize=12;outlineConnect=0;spacingTop=-6;fontColor=#FFFFFF;sketch=0;shape=mxgraph.sitemap.photo;" vertex="1" parent="BaOxIRFJ-_uR9Gt454bv-20">
          <mxGeometry x="17.5" y="160" width="322.5" height="230" as="geometry" />
        </mxCell>
        <mxCell id="BaOxIRFJ-_uR9Gt454bv-23" value="" style="strokeWidth=1;shadow=0;dashed=0;align=center;html=1;shape=mxgraph.mockup.containers.browserWindow;rSize=0;strokeColor=#d6b656;strokeColor2=#008cff;strokeColor3=#c4c4c4;mainText=,;recursiveResize=0;fillColor=#fff2cc;gradientColor=#ffd966;" parent="1" vertex="1">
          <mxGeometry x="30" y="510" width="610" height="460" as="geometry" />
        </mxCell>
        <mxCell id="BaOxIRFJ-_uR9Gt454bv-24" value="Feedback" style="strokeWidth=1;shadow=0;dashed=0;align=center;html=1;shape=mxgraph.mockup.containers.anchor;fontSize=17;fontColor=#666666;align=left;" parent="BaOxIRFJ-_uR9Gt454bv-23" vertex="1">
          <mxGeometry x="60" y="12" width="110" height="26" as="geometry" />
        </mxCell>
        <mxCell id="BaOxIRFJ-_uR9Gt454bv-25" value="https://www.canteenonline.io/feedback.html" style="strokeWidth=1;shadow=0;dashed=0;align=center;html=1;shape=mxgraph.mockup.containers.anchor;rSize=0;fontSize=17;fontColor=#666666;align=left;" parent="BaOxIRFJ-_uR9Gt454bv-23" vertex="1">
          <mxGeometry x="130" y="60" width="250" height="26" as="geometry" />
        </mxCell>
        <mxCell id="BaOxIRFJ-_uR9Gt454bv-37" value="Submit Feedback" style="strokeWidth=1;shadow=0;dashed=0;align=center;html=1;shape=mxgraph.mockup.buttons.button;mainText=;buttonStyle=round;fontSize=14;fontStyle=0;whiteSpace=wrap;fillColor=#f5f5f5;fontColor=#333333;strokeColor=#666666;" parent="BaOxIRFJ-_uR9Gt454bv-23" vertex="1">
          <mxGeometry x="440" y="373" width="130" height="40" as="geometry" />
        </mxCell>
        <mxCell id="BaOxIRFJ-_uR9Gt454bv-61" value="From" style="strokeWidth=1;shadow=0;dashed=0;align=center;html=1;shape=mxgraph.mockup.forms.anchor;align=right;spacingRight=2;fontColor=#666666;fontSize=14;" parent="BaOxIRFJ-_uR9Gt454bv-23" vertex="1">
          <mxGeometry x="30" y="140" width="50" height="18" as="geometry" />
        </mxCell>
        <mxCell id="BaOxIRFJ-_uR9Gt454bv-62" value="Anonymous" style="strokeWidth=1;shadow=0;dashed=0;align=center;html=1;shape=mxgraph.mockup.forms.rrect;fillColor=#ffffff;rSize=0;fontColor=#666666;align=left;spacingLeft=3;strokeColor=#999999;fontSize=14;" parent="BaOxIRFJ-_uR9Gt454bv-23" vertex="1">
          <mxGeometry x="80" y="140" width="350" height="18" as="geometry" />
        </mxCell>
        <mxCell id="BaOxIRFJ-_uR9Gt454bv-63" value="Subject" style="strokeWidth=1;shadow=0;dashed=0;align=center;html=1;shape=mxgraph.mockup.forms.anchor;align=right;spacingRight=2;fontColor=#666666;fontSize=14;" parent="BaOxIRFJ-_uR9Gt454bv-23" vertex="1">
          <mxGeometry x="30" y="175" width="50" height="18" as="geometry" />
        </mxCell>
        <mxCell id="BaOxIRFJ-_uR9Gt454bv-64" value="Feedback" style="strokeWidth=1;shadow=0;dashed=0;align=center;html=1;shape=mxgraph.mockup.forms.rrect;fillColor=#ffffff;rSize=0;fontColor=#666666;align=left;spacingLeft=3;strokeColor=#999999;fontSize=14;" parent="BaOxIRFJ-_uR9Gt454bv-23" vertex="1">
          <mxGeometry x="80" y="175" width="350" height="18" as="geometry" />
        </mxCell>
        <mxCell id="BaOxIRFJ-_uR9Gt454bv-65" value="To" style="strokeWidth=1;shadow=0;dashed=0;align=center;html=1;shape=mxgraph.mockup.forms.anchor;align=right;spacingRight=2;fontColor=#666666;fontSize=14;" parent="BaOxIRFJ-_uR9Gt454bv-23" vertex="1">
          <mxGeometry x="30" y="210" width="50" height="18" as="geometry" />
        </mxCell>
        <mxCell id="BaOxIRFJ-_uR9Gt454bv-66" value="fred@jgraph.com" style="strokeWidth=1;shadow=0;dashed=0;align=center;html=1;shape=mxgraph.mockup.forms.rrect;fillColor=#ffffff;rSize=0;fontColor=#666666;align=left;spacingLeft=3;strokeColor=#999999;fontSize=14;" parent="BaOxIRFJ-_uR9Gt454bv-23" vertex="1">
          <mxGeometry x="80" y="210" width="350" height="18" as="geometry" />
        </mxCell>
        <mxCell id="BaOxIRFJ-_uR9Gt454bv-71" value="Lorem ipsum dolor sit amet, consectetur adipisicing elit, sed do eiusmod tempor incididunt ut labore et dolore magna aliqua. Ut enim ad minim veniam, quis nostrud exercitation ullamco laboris nisi ut aliquip ex ea commodo consequat. Duis aute irure dolor in reprehenderit in voluptate velit esse cillum dolore eu fugiat nulla pariatur. Excepteur sint occaecat cupidatat non proident, sunt in culpa qui officia deserunt mollit anim id est laborum." style="strokeWidth=1;shadow=0;dashed=0;align=center;html=1;shape=mxgraph.mockup.forms.rrect;fillColor=#ffffff;rSize=0;fontColor=#666666;align=left;spacingLeft=3;strokeColor=#999999;verticalAlign=top;whiteSpace=wrap;fontSize=14;" parent="BaOxIRFJ-_uR9Gt454bv-23" vertex="1">
          <mxGeometry x="80" y="244" width="350" height="170" as="geometry" />
        </mxCell>
        <mxCell id="BaOxIRFJ-_uR9Gt454bv-72" value="&lt;font style=&quot;font-size: 16px;&quot; color=&quot;#ff0000&quot;&gt;&lt;i style=&quot;font-size: 16px;&quot;&gt;Help us improve our service!!!&lt;br&gt;Customer satisfaction is key to us!!!&lt;br&gt;&lt;br&gt;Your feedback is completely anonymous.&lt;br&gt;&lt;br&gt;We await to hear from you.&lt;/i&gt;&lt;/font&gt;" style="text;spacingTop=-5;whiteSpace=wrap;html=1;align=left;fontSize=16;fontFamily=Helvetica;fillColor=none;strokeColor=none;" parent="BaOxIRFJ-_uR9Gt454bv-23" vertex="1">
          <mxGeometry x="440" y="140" width="160" height="220" as="geometry" />
        </mxCell>
        <mxCell id="jjGvyvvV1T1RSbV-EjfU-22" value="&lt;font style=&quot;font-size: 12px;&quot;&gt;Contact Us&lt;/font&gt;" style="strokeWidth=1;shadow=0;dashed=0;align=center;html=1;shape=mxgraph.mockup.navigation.anchor;fontSize=17;fontColor=#666666;fontStyle=1;" vertex="1" parent="1">
          <mxGeometry x="306" y="170" width="60" height="30" as="geometry" />
        </mxCell>
        <mxCell id="jjGvyvvV1T1RSbV-EjfU-23" value="|" style="strokeWidth=1;shadow=0;dashed=0;align=center;html=1;shape=mxgraph.mockup.navigation.anchor;fontSize=12;fontColor=#aaaaaa;fontStyle=1;" vertex="1" parent="1">
          <mxGeometry x="290" y="170" width="20" height="30" as="geometry" />
        </mxCell>
      </root>
    </mxGraphModel>
  </diagram>
</mxfile>
